<svg version="1.1" preserveAspectRatio="none" xmlns="http://www.w3.org/2000/svg" width="500" height="500" viewBox="0 0 500 500"><rect width="100%" height="100%" fill="#FFFFFF" fill-opacity="1"/><svg viewBox="87.9642 138.5906 472.5502 70.4" width="333" height="49.60996736431389" x="83.5px" y="225.195px" xmlns="http://www.w3.org/2000/svg" xmlns:xlink="http://www.w3.org/1999/xlink" preserveAspectRatio="none"><defs></defs><style>.companyName {fill:#182145;fill-opacity:1;}.icon1 {fill:#182145;fill-opacity:1;}.icon2 {fill:#E35B34;fill-opacity:1;}.icon3 {fill:#E3D454;fill-opacity:1;}.icon3-str {stroke:#E3D454;stroke-opacity:1;}.text {fill:#182145;fill-opacity:1;}</style><g opacity="1" transform="rotate(0 87.9642 138.5906)">
<svg width="70.3997" height="70.4" x="87.9642" y="138.5906" version="1.1" preserveAspectRatio="none" viewBox="62.178016662597656 76.76397705078125 896.6449584960938 896.6480712890625">
  <g transform="matrix(1 0 0 1 0 0)" class="icon1"><path d="M952.908,519.141c-0.973-1.13-24.246-27.989-62.108-55.144c-36.107-25.896-73.234-43.065-109.312-50.764  c32.615-47.925,48.223-113.435,46.399-195.43l-0.201-9.07l-9.047-0.68c-1.487-0.11-36.937-2.646-82.91,4.926  c-43.446,7.154-81.519,21.096-112.324,40.875c-10.839-56.856-46.118-114.099-105.416-170.819l-6.556-6.271l-6.878,5.917  c-1.173,1.009-29.05,25.166-56.712,64.308c-25.209,35.67-41.857,72.217-49.324,107.783c-31.052-20.264-69.62-34.527-113.733-41.792  c-45.973-7.571-81.422-5.036-82.909-4.924l-9.047,0.679l-0.202,9.07c-1.823,82.041,13.799,147.585,46.456,195.525  c-35.942,7.743-72.917,24.875-108.882,50.669c-37.862,27.154-61.135,54.014-62.107,55.144l-5.917,6.877l6.271,6.557  c56.585,59.157,113.838,94.45,170.692,105.353c-19.968,30.904-34.038,69.168-41.236,112.875  c-7.571,45.974-5.036,81.423-4.924,82.909l0.679,9.047l9.07,0.201c82.292,1.829,147.983-13.896,195.962-46.758  c7.547,35.314,24.13,71.581,49.15,106.984c27.662,39.142,55.539,63.299,56.712,64.308l6.878,5.916l6.556-6.271  c59-56.436,94.227-113.388,105.255-169.963c47.845,32.201,113.057,47.595,194.541,45.783l9.07-0.201l0.68-9.047  c0.11-1.487,2.646-36.937-4.926-82.91c-7.191-43.669-21.241-81.904-41.182-112.793c56.992-10.803,114.394-46.122,171.126-105.434  l6.271-6.557L952.908,519.141z M878.745,479.964c0.65,0.465,1.278,0.931,1.92,1.396l-38.026,34.302h-38.361l-31.83-51.328  l28.539-25.069C831.752,449.544,858.654,465.594,878.745,479.964z M743.952,621.589c-0.004,0-0.016,0-0.02,0  c-30.062-0.003-59.371-7.616-87.57-22.674h99.355l22.111,19.423C766.488,620.496,755.192,621.59,743.952,621.589z M719.873,659.961  l-11.618,49.551L566.2,567.457c4.886-0.471,9.691-0.821,14.435-1.078c6.294,6.362,13.547,13.14,21.718,19.932  c29.052,24.148,60.538,40.683,92.882,49.012L719.873,659.961z M603.759,792.421l-19.429-22.118v-99.09  c10.901,20.561,19.606,44.816,22.001,71.986C607.768,759.496,606.897,775.913,603.759,792.421z M414.114,747.143  c1.024-27.97,8.97-54.869,23.71-80.552v103.712l-19.491,22.189C415.184,777.93,413.543,762.729,414.114,747.143z M457.824,637.526  c11.981-14.838,26.412-29.215,43.253-43.099v200.898l-43.253-26.82V637.526z M521.077,818.861l51.328-31.829l25.357,28.867  c-8.452,26.487-22.69,53.175-42.688,79.959l-33.998-33.998V818.861z M564.33,768.505l-43.253,26.821V594.249  c8.768,7.384,20.282,18.031,31.97,31.569c3.66,4.239,7.465,8.927,11.283,14.02V768.505z M536.211,551.154  c0,0-2.928,14.625-4.022,26.287c-9.038-7.484-21.434-15.743-21.434-15.743s-16.956,12.821-22.292,17.215  c-1.111-12.531-4.158-27.759-4.158-27.759s-20.353-2.848-26.893-3.496c7.939-9.507,16.478-22.318,16.478-22.318  s-12.577-16.641-16.844-21.838c12.312-1.108,27.389-4.125,27.389-4.125s2.979-21.396,3.648-28.43  c5.452,4.501,22.672,17.527,22.672,17.527s12.571-8.374,21.83-16.07c0.646,6.566,3.498,26.973,3.498,26.973  s15.261,3.053,27.842,4.164c-4.256,5.186-16.812,21.799-16.812,21.799s8.527,12.794,16.447,22.28  C556.873,548.271,536.211,551.154,536.211,551.154z M454.317,567.456L312.261,709.512l-11.619-49.55l24.468-24.468  c32.575-8.272,64.292-24.865,93.541-49.179c8.16-6.783,15.405-13.553,21.694-19.908  C444.941,566.666,449.589,567.001,454.317,567.456z M243.177,618.334l22.108-19.419h99.366  c-28.203,15.061-57.515,22.674-87.58,22.674C265.825,621.589,254.523,620.494,243.177,618.334z M300.316,391.025l11.619-49.55  l142.177,142.177c-4.08,0.349-8.708,0.65-13.776,0.835c-36.326-38.501-75.868-62.471-118.193-71.635L300.316,391.025z   M369.004,452.409H265.285l-22.2-19.501c12.607-2.728,25.684-4.324,39.071-4.324C312.401,428.584,341.407,436.571,369.004,452.409z   M267.082,472.409h130.962c14.841,11.982,29.223,26.403,43.113,43.253H240.261L267.082,472.409z M441.329,535.662  c-8.159,9.687-20.291,22.718-35.922,35.654c-3.19,2.64-6.4,5.165-9.625,7.599H267.083l-26.822-43.253H441.329z M418.333,257.681  l19.491,22.189v103.712c-14.741-25.683-22.687-52.582-23.71-80.551C413.543,287.444,415.184,272.243,418.333,257.681z   M457.824,281.667l43.253-26.822v200.9c-16.841-13.884-31.271-28.26-43.253-43.099V281.667z M606.331,306.974  c-2.395,27.17-11.1,51.426-22.001,71.987V279.87l19.429-22.118C606.897,274.26,607.768,290.676,606.331,306.974z M521.077,455.924  V254.846l43.253,26.821v128.667c-3.818,5.093-7.623,9.781-11.283,14.02C541.359,437.892,529.845,448.54,521.077,455.924z   M572.405,263.141l-51.328-31.829v-42.999l33.998-33.998c19.997,26.784,34.235,53.472,42.688,79.958L572.405,263.141z   M566.406,483.651l142.176-142.176l11.618,49.551l-21.968,21.968c-42.092,9.266-81.429,33.188-117.577,71.506  C575.4,484.318,570.611,484.011,566.406,483.651z M738.847,428.584c13.388,0,26.465,1.597,39.071,4.325l-22.2,19.5H651.999  C679.597,436.571,708.603,428.584,738.847,428.584z M753.92,578.915H625.229c-3.229-2.436-6.44-4.962-9.633-7.604  c-15.631-12.936-27.763-25.966-35.921-35.649h201.067L753.92,578.915z M579.847,515.662c13.89-16.85,28.271-31.271,43.112-43.253  h130.962l26.821,43.253H579.847z M738.847,408.584c-2.715,0-5.416,0.077-8.11,0.19l4.878-4.877l29.368-1.9  c-1.793,2.636-3.653,5.198-5.563,7.706C752.501,408.968,745.637,408.584,738.847,408.584z M761.004,229.755  c20.453-2.149,37.285-2.301,47.02-2.11c0.089,16.341-0.569,31.932-1.952,46.784h-47.367L761.004,229.755z M803.692,294.43  c-4.802,33.057-13.587,62.017-26.334,86.723l-38.348,2.482l-13.787-58.801l30.404-30.404H803.692z M654.734,258.998  c29.022-14.486,59.395-22.16,83.762-26.206c0.789-0.131,1.562-0.245,2.345-0.37l-2.634,51.144l-27.125,27.126l-58.802-13.787  L654.734,258.998z M694.44,327.333L552.386,469.388c-0.455-4.726-0.801-9.379-1.056-13.972c5.253-5.173,10.797-11.004,16.405-17.47  c26.426-30.465,44.493-63.968,53.22-98.296l23.935-23.935L694.44,327.333z M633.928,270.814l-1.909,29.487l-5.534,5.534  c0.729-9.948,0.692-19.916-0.099-29.9C628.871,274.165,631.384,272.454,633.928,270.814z M510.902,104.04  c11.623,11.496,22.173,22.986,31.698,34.464l-33.491,33.491l-29.965-33.219C492.089,122.79,503.883,110.788,510.902,104.04z   M463.868,158.967c0.966-1.371,1.933-2.719,2.899-4.052l34.31,38.035v38.362l-51.327,31.829l-25.064-28.533  C434.624,204.834,449.945,178.729,463.868,158.967z M395.085,276.61c-0.95,9.118-1.282,18.145-0.961,27.045  c0.029,0.802,0.087,1.598,0.126,2.398l-5.751-5.751l-1.908-29.487C389.458,272.663,392.29,274.599,395.085,276.61z M398.75,338.838  c9.454,41.297,33.035,79.937,70.497,115.477c-0.262,4.952-0.625,9.97-1.116,15.074L326.077,327.333l49.55-11.619L398.75,338.838z   M282.02,232.792c24.368,4.046,54.74,11.719,83.763,26.206l2.454,37.907l-58.801,13.788l-27.126-27.126l-2.633-51.145  C280.459,232.546,281.231,232.661,282.02,232.792z M212.493,227.645c9.737-0.192,26.567-0.041,47.019,2.11l2.3,44.674l-47.367,0  C213.063,259.577,212.405,243.984,212.493,227.645z M264.888,294.429l30.405,30.405l-13.788,58.8l-38.341-2.482  c-12.749-24.708-21.536-53.667-26.339-86.724H264.888z M255.539,401.996l29.364,1.901l4.851,4.851  c-2.524-0.099-5.055-0.164-7.597-0.164c-6.941,0-13.959,0.4-21.032,1.168C259.21,407.224,257.341,404.646,255.539,401.996z   M142.257,479.964c20.092-14.37,46.994-30.42,77.76-40.698l28.539,25.069l-31.829,51.328h-38.362l-38.027-34.303  C140.979,480.894,141.607,480.429,142.257,479.964z M89.455,525.487c6.749-7.021,18.757-18.814,34.739-31.755l33.216,29.962  l-33.494,33.493C112.437,547.664,100.946,537.104,89.455,525.487z M139.742,569.647l33.985-33.985h43l31.829,51.327l-28.866,25.356  C193.204,603.89,166.513,589.625,139.742,569.647z M277.071,641.589c4.735,0,9.468-0.182,14.195-0.535l-6.036,6.036l-29.487,1.908  c1.755-2.724,3.585-5.416,5.487-8.074C266.515,641.35,271.796,641.589,277.071,641.589z M259.356,821.143  c-14.852,1.383-30.444,2.041-46.783,1.952c-0.192-9.736-0.041-26.567,2.11-47.019l44.674-2.301L259.356,821.143z M217.35,755.912  c0.125-0.783,0.239-1.556,0.371-2.344c4.046-24.368,11.719-54.74,26.206-83.763l37.907-2.454l13.788,58.801l-27.126,27.126  L217.35,755.912z M366.081,792.423c-24.708,12.749-53.667,21.536-86.724,26.34V770.7l30.405-30.405l58.8,13.787L366.081,792.423z   M326.404,723.653l142.177-142.177c0.359,4.195,0.666,8.974,0.849,14.211c-38.01,36.008-61.763,75.198-71.005,117.113  l-22.471,22.472L326.404,723.653z M386.924,780.049l1.901-29.363l5.361-5.361c-0.017,0.398-0.048,0.795-0.063,1.193  c-0.328,9.082,0.022,18.295,1.017,27.603C392.468,776.157,389.734,778.138,386.924,780.049z M424.686,815.564l25.063-28.532  l51.328,31.829v38.361l-34.31,38.035c-0.967-1.333-1.934-2.682-2.899-4.052C449.945,871.444,434.624,845.339,424.686,815.564z   M510.902,946.133c-7.021-6.749-18.813-18.751-31.758-34.736l29.965-33.219l33.491,33.491  C533.075,923.146,522.525,934.637,510.902,946.133z M626.337,774.839c0.805-9.775,0.884-19.536,0.231-29.276l5.123,5.123l1.9,29.368  C631.115,778.369,628.701,776.627,626.337,774.839z M621.347,712.057c-8.573-34.863-26.792-68.91-53.611-99.829  c-5.68-6.548-11.292-12.442-16.604-17.664c0.186-4.798,0.472-9.195,0.805-13.086l142.176,142.176l-49.551,11.618L621.347,712.057z   M741.158,818.764c-33.057-4.802-62.017-13.587-86.723-26.334l-2.482-38.348l58.801-13.787l30.404,30.404V818.764z M807.943,823.095  c-16.341,0.089-31.932-0.569-46.784-1.952v-47.367l44.674,2.3C807.982,796.528,808.134,813.36,807.943,823.095z M803.166,755.912  l-51.144-2.634l-27.126-27.125l13.787-58.802l37.906,2.454c14.486,29.022,22.16,59.395,26.206,83.762  C802.927,754.356,803.041,755.129,803.166,755.912z M764.773,648.999l-29.487-1.909l-6.083-6.083  c4.904,0.381,9.814,0.581,14.728,0.582c0.008,0,0.014,0,0.022,0c5.109,0,10.224-0.225,15.343-0.624  C761.193,643.61,763.025,646.286,764.773,648.999z M801.318,612.35l-28.871-25.359l31.83-51.328h42.998l33.986,33.986  C854.491,589.628,827.802,603.894,801.318,612.35z M897.087,557.188l-33.494-33.494l33.216-29.962  c15.982,12.942,27.991,24.737,34.739,31.755C920.057,537.104,908.566,547.664,897.087,557.188z"></path></g>
</svg>
</g><g opacity="1" transform="rotate(0 178.3639 190.5906)">
<svg width="162.3799" height="18.4" x="178.3639" y="190.5906" version="1.1" preserveAspectRatio="none" viewBox="1.08 -29.68 330.48 37.44">
  <g transform="matrix(1 0 0 1 0 0)" class="text"><path id="id-6izo4zJp13" d="M39.72-28L44.68-28L35.40 0L29.88 0L22.96-20.72L15.92 0L10.36 0L1.08-28L6.48-28L13.44-6.72L20.68-28L25.48-28L32.56-6.60L39.72-28Z M68.12-10.56Q68.12-10.04 68.04-9.08L68.04-9.08L51.28-9.08Q51.72-6.72 53.58-5.34Q55.44-3.96 58.20-3.96L58.20-3.96Q61.72-3.96 64-6.28L64-6.28L66.68-3.20Q65.24-1.48 63.04-0.60Q60.84 0.28 58.08 0.28L58.08 0.28Q54.56 0.28 51.88-1.12Q49.20-2.52 47.74-5.02Q46.28-7.52 46.28-10.68L46.28-10.68Q46.28-13.80 47.70-16.30Q49.12-18.80 51.64-20.20Q54.16-21.60 57.32-21.60L57.32-21.60Q60.44-21.60 62.90-20.22Q65.36-18.84 66.74-16.34Q68.12-13.84 68.12-10.56L68.12-10.56ZM57.32-17.60Q54.92-17.60 53.26-16.18Q51.60-14.76 51.24-12.40L51.24-12.40L63.36-12.40Q63.04-14.72 61.40-16.16Q59.76-17.60 57.32-17.60L57.32-17.60Z M85.96-21.60Q89.08-21.60 91.54-20.24Q94-18.88 95.40-16.40Q96.80-13.92 96.80-10.68L96.80-10.68Q96.80-7.44 95.40-4.94Q94-2.44 91.54-1.08Q89.08 0.28 85.96 0.28L85.96 0.28Q83.76 0.28 81.94-0.48Q80.12-1.24 78.88-2.76L78.88-2.76L78.88 0L74.12 0L74.12-29.68L79.12-29.68L79.12-18.76Q80.40-20.16 82.14-20.88Q83.88-21.60 85.96-21.60L85.96-21.60ZM85.40-4Q88.16-4 89.94-5.84Q91.72-7.68 91.72-10.68L91.72-10.68Q91.72-13.68 89.94-15.52Q88.16-17.36 85.40-17.36L85.40-17.36Q83.60-17.36 82.16-16.54Q80.72-15.72 79.88-14.20Q79.04-12.68 79.04-10.68L79.04-10.68Q79.04-8.68 79.88-7.16Q80.72-5.64 82.16-4.82Q83.60-4 85.40-4L85.40-4Z M115.48 0L115.48-28L127.72-28Q132.20-28 135.68-26.26Q139.16-24.52 141.08-21.34Q143-18.16 143-14L143-14Q143-9.84 141.08-6.66Q139.16-3.48 135.68-1.74Q132.20 0 127.72 0L127.72 0L115.48 0ZM120.68-4.40L127.48-4.40Q130.56-4.40 132.90-5.58Q135.24-6.76 136.50-8.94Q137.76-11.12 137.76-14L137.76-14Q137.76-16.88 136.50-19.06Q135.24-21.24 132.90-22.42Q130.56-23.60 127.48-23.60L127.48-23.60L120.68-23.60L120.68-4.40Z M169.32-10.56Q169.32-10.04 169.24-9.08L169.24-9.08L152.48-9.08Q152.92-6.72 154.78-5.34Q156.64-3.96 159.40-3.96L159.40-3.96Q162.92-3.96 165.20-6.28L165.20-6.28L167.88-3.20Q166.44-1.48 164.24-0.60Q162.04 0.28 159.28 0.28L159.28 0.28Q155.76 0.28 153.08-1.12Q150.40-2.52 148.94-5.02Q147.48-7.52 147.48-10.68L147.48-10.68Q147.48-13.80 148.90-16.30Q150.32-18.80 152.84-20.20Q155.36-21.60 158.52-21.60L158.52-21.60Q161.64-21.60 164.10-20.22Q166.56-18.84 167.94-16.34Q169.32-13.84 169.32-10.56L169.32-10.56ZM158.52-17.60Q156.12-17.60 154.46-16.18Q152.80-14.76 152.44-12.40L152.44-12.40L164.56-12.40Q164.24-14.72 162.60-16.16Q160.96-17.60 158.52-17.60L158.52-17.60Z M190.12-21.36L194.92-21.36L185.76 0L180.60 0L171.44-21.36L176.64-21.36L183.28-5.52L190.12-21.36Z M218.72-10.56Q218.72-10.04 218.64-9.08L218.64-9.08L201.88-9.08Q202.32-6.72 204.18-5.34Q206.04-3.96 208.80-3.96L208.80-3.96Q212.32-3.96 214.60-6.28L214.60-6.28L217.28-3.20Q215.84-1.48 213.64-0.60Q211.44 0.28 208.68 0.28L208.68 0.28Q205.16 0.28 202.48-1.12Q199.80-2.52 198.34-5.02Q196.88-7.52 196.88-10.68L196.88-10.68Q196.88-13.80 198.30-16.30Q199.72-18.80 202.24-20.20Q204.76-21.60 207.92-21.60L207.92-21.60Q211.04-21.60 213.50-20.22Q215.96-18.84 217.34-16.34Q218.72-13.84 218.72-10.56L218.72-10.56ZM207.92-17.60Q205.52-17.60 203.86-16.18Q202.20-14.76 201.84-12.40L201.84-12.40L213.96-12.40Q213.64-14.72 212-16.16Q210.36-17.60 207.92-17.60L207.92-17.60Z M224.72 0L224.72-29.68L229.72-29.68L229.72 0L224.72 0Z M247.08 0.28Q243.84 0.28 241.24-1.12Q238.64-2.52 237.18-5.02Q235.72-7.52 235.72-10.68L235.72-10.68Q235.72-13.84 237.18-16.32Q238.64-18.80 241.24-20.20Q243.84-21.60 247.08-21.60L247.08-21.60Q250.36-21.60 252.96-20.20Q255.56-18.80 257.02-16.32Q258.48-13.84 258.48-10.68L258.48-10.68Q258.48-7.52 257.02-5.02Q255.56-2.52 252.96-1.12Q250.36 0.28 247.08 0.28L247.08 0.28ZM247.08-4Q249.84-4 251.64-5.84Q253.44-7.68 253.44-10.68L253.44-10.68Q253.44-13.68 251.64-15.52Q249.84-17.36 247.08-17.36L247.08-17.36Q244.32-17.36 242.54-15.52Q240.76-13.68 240.76-10.68L240.76-10.68Q240.76-7.68 242.54-5.84Q244.32-4 247.08-4L247.08-4Z M276.32-21.60Q279.44-21.60 281.90-20.24Q284.36-18.88 285.76-16.40Q287.16-13.92 287.16-10.68L287.16-10.68Q287.16-7.44 285.76-4.94Q284.36-2.44 281.90-1.08Q279.44 0.28 276.32 0.28L276.32 0.28Q272.00 0.28 269.48-2.60L269.48-2.60L269.48 7.76L264.48 7.76L264.48-21.36L269.24-21.36L269.24-18.56Q270.48-20.08 272.30-20.84Q274.12-21.60 276.32-21.60L276.32-21.60ZM275.76-4Q278.52-4 280.30-5.84Q282.08-7.68 282.08-10.68L282.08-10.68Q282.08-13.68 280.30-15.52Q278.52-17.36 275.76-17.36L275.76-17.36Q273.96-17.36 272.52-16.54Q271.08-15.72 270.24-14.20Q269.40-12.68 269.40-10.68L269.40-10.68Q269.40-8.68 270.24-7.16Q271.08-5.64 272.52-4.82Q273.96-4 275.76-4L275.76-4Z M313.20-10.56Q313.20-10.04 313.12-9.08L313.12-9.08L296.36-9.08Q296.80-6.72 298.66-5.34Q300.52-3.96 303.28-3.96L303.28-3.96Q306.80-3.96 309.08-6.28L309.08-6.28L311.76-3.20Q310.32-1.48 308.12-0.60Q305.92 0.28 303.16 0.28L303.16 0.28Q299.64 0.28 296.96-1.12Q294.28-2.52 292.82-5.02Q291.36-7.52 291.36-10.68L291.36-10.68Q291.36-13.80 292.78-16.30Q294.20-18.80 296.72-20.20Q299.24-21.60 302.40-21.60L302.40-21.60Q305.52-21.60 307.98-20.22Q310.44-18.84 311.82-16.34Q313.20-13.84 313.20-10.56L313.20-10.56ZM302.40-17.60Q300.00-17.60 298.34-16.18Q296.68-14.76 296.32-12.40L296.32-12.40L308.44-12.40Q308.12-14.72 306.48-16.16Q304.84-17.60 302.40-17.60L302.40-17.60Z M323.96-18.24Q326.12-21.60 331.56-21.60L331.56-21.60L331.56-16.84Q330.92-16.96 330.40-16.96L330.40-16.96Q327.48-16.96 325.84-15.26Q324.20-13.56 324.20-10.36L324.20-10.36L324.20 0L319.20 0L319.20-21.36L323.96-21.36L323.96-18.24Z"/></g>
</svg>
</g><g opacity="1" transform="rotate(0 178.3639 138.5906)">
<svg width="382.1505" height="40" x="178.3639" y="138.5906" version="1.1" preserveAspectRatio="none" viewBox="3.32 -28 267.48 28">
  <g transform="matrix(1 0 0 1 0 0)" class="companyName"><path id="id-D6z1nYkh9" d="M15.44-28Q19.16-28 21.90-26.76Q24.64-25.52 26.12-23.24Q27.60-20.96 27.60-17.84L27.60-17.84Q27.60-14.76 26.12-12.46Q24.64-10.16 21.90-8.94Q19.16-7.72 15.44-7.72L15.44-7.72L9.80-7.72L9.80 0L3.32 0L3.32-28L15.44-28ZM15.08-13Q18-13 19.52-14.26Q21.04-15.52 21.04-17.84L21.04-17.84Q21.04-20.20 19.52-21.46Q18-22.72 15.08-22.72L15.08-22.72L9.80-22.72L9.80-13L15.08-13Z M51.72 0L49.24-6L36.24-6L33.76 0L27.12 0L39.60-28L46-28L58.52 0L51.72 0ZM38.32-10.92L47.20-10.92L42.76-21.64L38.32-10.92Z M80.40-28L86.84-28L74.72 0L68.32 0L56.24-28L63.24-28L71.76-8L80.40-28Z M108.44-28L114.84-28L114.84 0L109.52 0L95.56-17L95.56 0L89.16 0L89.16-28L94.52-28L108.44-11L108.44-28Z M127.92-5.20L143.16-5.20L143.16 0L121.48 0L121.48-28L142.64-28L142.64-22.80L127.92-22.80L127.92-16.72L140.92-16.72L140.92-11.68L127.92-11.68L127.92-5.20Z M167.60-28L174-28L174 0L168.68 0L154.72-17L154.72 0L148.32 0L148.32-28L153.68-28L167.60-11L167.60-28Z M180.64 0L180.64-28L193.36-28Q197.92-28 201.42-26.26Q204.92-24.52 206.86-21.36Q208.80-18.20 208.80-14L208.80-14Q208.80-9.80 206.86-6.64Q204.92-3.48 201.42-1.74Q197.92 0 193.36 0L193.36 0L180.64 0ZM187.12-5.32L193.04-5.32Q197.24-5.32 199.74-7.66Q202.24-10 202.24-14L202.24-14Q202.24-18 199.74-20.34Q197.24-22.68 193.04-22.68L193.04-22.68L187.12-22.68L187.12-5.32Z M238.48 0L231.52 0L226.12-7.80L225.80-7.80L220.16-7.80L220.16 0L213.68 0L213.68-28L225.80-28Q229.52-28 232.26-26.76Q235-25.52 236.48-23.24Q237.96-20.96 237.96-17.84L237.96-17.84Q237.96-14.72 236.46-12.46Q234.96-10.20 232.20-9L232.20-9L238.48 0ZM231.40-17.84Q231.40-20.20 229.88-21.46Q228.36-22.72 225.44-22.72L225.44-22.72L220.16-22.72L220.16-12.96L225.44-12.96Q228.36-12.96 229.88-14.24Q231.40-15.52 231.40-17.84L231.40-17.84Z M264 0L261.52-6L248.52-6L246.04 0L239.40 0L251.88-28L258.28-28L270.80 0L264 0ZM250.60-10.92L259.48-10.92L255.04-21.64L250.60-10.92Z"/></g>
</svg>
</g></svg></svg>